<svg xmlns="http://www.w3.org/2000/svg" viewBox="0 0 208 208"><defs><style>.a,.d{fill:rgba(255,255,255,0);}.a,.b,.c,.e,.f{stroke:#fff;}.a{stroke-width:8px;}.b,.c,.e,.f,.h{fill:none;}.b{stroke-width:4px;}.c{stroke-width:5px;}.e{stroke-linecap:round;}.e,.f{stroke-width:3px;}.g,.i{stroke:none;}.i{fill:#fff;}</style></defs><g transform="translate(-220)"><g class="a" transform="translate(220)"><circle class="g" cx="104" cy="104" r="104"/><circle class="h" cx="104" cy="104" r="100"/></g><g transform="translate(272.5 41.5)"><g transform="translate(16.5 27.5)"><line class="b" x2="28" transform="translate(21.5 110.5)"/><line class="c" x2="34" transform="translate(18.5 103.5)"/><line class="b" x2="38" transform="translate(16.5 96.5)"/><g class="d"><path class="g" d="M 51.05982208251953 88.534423828125 L 37.83251571655273 88.534423828125 L 19.9320182800293 88.534423828125 C 19.50684928894043 72.48628997802734 14.95888328552246 66.80197906494141 10.55371475219727 61.29553985595703 C 8.45554256439209 58.67285537719727 6.473742961883545 56.19562530517578 5.001214504241943 52.51383972167969 C 3.318157196044922 48.30565643310547 2.5 42.90392684936523 2.5 35.99999618530273 C 2.5 31.47642707824707 3.385385751724243 27.08949851989746 5.131571292877197 22.9610538482666 C 6.818714141845703 18.97219848632813 9.234542846679688 15.38931179046631 12.31192874908447 12.31192588806152 C 15.38931465148926 9.234540939331055 18.97220039367676 6.818711757659912 22.96105766296387 5.131568908691406 C 27.08950042724609 3.385383367538452 31.4764289855957 2.499997615814209 36 2.499997615814209 C 40.5235710144043 2.499997615814209 44.91049957275391 3.385383367538452 49.03894424438477 5.131568908691406 C 53.02780151367188 6.818711757659912 56.61068725585938 9.234540939331055 59.68807220458984 12.31192588806152 C 62.76545715332031 15.38931179046631 65.18128204345703 18.97219848632813 66.86843109130859 22.9610538482666 C 68.61461639404297 27.08949851989746 69.5 31.47642707824707 69.5 35.99999618530273 C 69.5 42.93099594116211 68.61341094970703 48.4308967590332 66.78958892822266 52.81396865844727 C 65.18641662597656 56.66675567626953 63.04355621337891 59.32345581054688 60.77488708496094 62.13613891601563 C 56.22536087036133 67.77659606933594 51.52889251708984 73.59866333007813 51.05982208251953 88.534423828125 Z"/><path class="i" d="M 36 4.999992370605469 C 31.81281661987305 4.999992370605469 27.7535514831543 5.818946838378906 23.93493270874023 7.43408203125 C 20.24406814575195 8.99517822265625 16.92828369140625 11.2310791015625 14.07968521118164 14.07968139648438 C 11.23108291625977 16.92827606201172 8.995182037353516 20.24406433105469 7.43408203125 23.93492889404297 C 5.818946838378906 27.75354385375977 5 31.81281280517578 5 35.99999618530273 C 5 42.57999420166016 5.759681701660156 47.67804336547852 7.32244873046875 51.5854606628418 C 8.657367706298828 54.92321014404297 10.44081497192383 57.15249633789063 12.50586700439453 59.73379516601563 C 16.73496627807617 65.02012634277344 21.47534561157227 70.94670104980469 22.3291015625 86.03443145751953 L 37.83251571655273 86.03443145751953 L 48.68032836914063 86.03443145751953 C 49.61262893676758 71.99295806884766 54.48175430297852 65.95625305175781 58.82898330688477 60.56659698486328 C 61.07556533813477 57.78129577636719 63.01578521728516 55.37582778930664 64.48143005371094 51.8535270690918 C 66.17616271972656 47.78071212768555 67 42.59496307373047 67 35.99999618530273 C 67 31.81281280517578 66.18105316162109 27.75354385375977 64.56591796875 23.93492889404297 C 63.00481796264648 20.24406433105469 60.76891708374023 16.92827606201172 57.92031860351563 14.07968139648438 C 55.07171630859375 11.2310791015625 51.75593566894531 8.99517822265625 48.06506729125977 7.43408203125 C 44.24645233154297 5.818946838378906 40.18718338012695 4.999992370605469 36 4.999992370605469 M 36 -7.62939453125e-06 C 55.88224792480469 -7.62939453125e-06 72 16.11774444580078 72 35.99999618530273 C 72 68.30961608886719 53.521484375 59.09527587890625 53.521484375 91.03443145751953 C 45.04985046386719 91.03443145751953 45.76561737060547 91.03443145751953 37.83251571655273 91.03443145751953 C 30.15800094604492 91.03443145751953 26.78990173339844 91.03443145751953 17.46435165405273 91.03443145751953 C 17.46435165405273 57.17472839355469 0 68.53539276123047 0 35.99999618530273 C 0 16.11774444580078 16.11774826049805 -7.62939453125e-06 36 -7.62939453125e-06 Z"/></g></g><line class="e" y1="10" transform="translate(53)"/><line class="e" x2="7" y2="9" transform="translate(19 10)"/><line class="e" x1="7" y2="9" transform="translate(80 10)"/><line class="e" x1="12" y1="5" transform="translate(0 30)"/><line class="e" y1="5" x2="12" transform="translate(93 30)"/><path class="f" d="M20.888-4.559S13.98-5.132,4.44,2.771C-2.21,9.131-4.031,19.545-4.031,19.545" transform="translate(30 41)"/><path class="f" d="M.112,10.306s-1.148.353-2.734-4.523A58.97,58.97,0,0,1-4.031-4.568" transform="translate(30.037 68.99)"/><path class="f" d="M-4.031-4.563s.416-.353.99,4.523c.4,3.925.51,10.351.51,10.351" transform="translate(52.739 104.068)"/><path class="f" d="M-2.531-4.563s-.416-.353-.99,4.523c-.4,3.925-.51,10.351-.51,10.351" transform="translate(57.037 104.068)"/></g></g></svg>