<svg xmlns="http://www.w3.org/2000/svg" viewBox="0 0 208 208"><defs><style>.a,.b{fill:rgba(255,255,255,0);}.a,.c{stroke:#fff;}.a{stroke-width:8px;}.c,.f{fill:#fff;}.d,.f{stroke:none;}.e{fill:none;}</style></defs><g transform="translate(-220)"><g class="a" transform="translate(220)"><circle class="d" cx="104" cy="104" r="104"/><circle class="e" cx="104" cy="104" r="100"/></g><g transform="translate(251.529 71.273)"><g class="b" transform="translate(91.563 -3.964)"><path class="d" d="M 51.60736846923828 66.39415740966797 L 26.90731620788574 66.39415740966797 L 1.968475580215454 66.39415740966797 C 1.897396087646484 65.70602416992188 1.848955869674683 64.86433410644531 1.875555634498596 63.93099594116211 C 1.965855717658997 60.76213836669922 2.837045669555664 58.05024719238281 4.464925765991211 55.87065505981445 C 4.595975875854492 55.69528579711914 4.979235649108887 55.32372665405273 6.069585800170898 54.81112670898438 C 7.041735649108887 54.35409545898438 8.222675323486328 53.94479751586914 9.472955703735352 53.51145553588867 C 11.29197597503662 52.88099670410156 13.17292594909668 52.22907638549805 14.69568538665771 51.31587600708008 C 16.94137573242188 49.96913528442383 18.08003616333008 48.21946716308594 18.08003616333008 46.11548614501953 L 18.08003616333008 43.61548614501953 L 15.58003520965576 43.61548614501953 C 13.83926582336426 43.61548614501953 12.40838527679443 43.07769775390625 11.20564556121826 41.97137832641602 C 10.13198566436768 40.98380661010742 9.231775283813477 39.53923797607422 8.530025482177734 37.67779541015625 C 7.029965877532959 33.69879531860352 7.012715816497803 29.36050605773926 7.012715816497803 29.17777633666992 C 7.012715816497803 21.10031700134277 9.371825218200684 18.59640693664551 11.42707538604736 17.31742668151855 C 14.62505531311035 15.32732677459717 19.9283561706543 14.91955661773682 26.90731620788574 14.91955661773682 C 33.93003463745117 14.91955661773682 37.80131530761719 15.8485860824585 39.85189437866211 18.0260066986084 C 40.87144470214844 19.10861587524414 41.56253433227539 20.58793640136719 42.02679443359375 22.6815071105957 C 42.5057373046875 24.8412971496582 42.72880554199219 27.61551666259766 42.72880554199219 31.41214561462402 C 42.72880554199219 32.25250625610352 42.576416015625 33.6224250793457 41.85040664672852 35.37637710571289 C 40.93049621582031 37.59877777099609 39.34270477294922 39.84698486328125 37.13113403320313 42.05854797363281 L 36.39890670776367 42.79078674316406 L 36.39890670776367 43.82631683349609 C 36.39890670776367 50.86034774780273 42.07029724121094 52.85956573486328 45.82317733764648 54.18248748779297 C 47.54547500610352 54.78960800170898 49.17226409912109 55.36306762695313 50.00160598754883 56.16829681396484 C 52.31323623657227 58.41347503662109 51.94414520263672 62.58512496948242 51.64756393432617 65.93711853027344 C 51.63397216796875 66.09075164794922 51.62049102783203 66.24314117431641 51.60736846923828 66.39415740966797 Z"/><path class="f" d="M 26.90731239318848 17.4195556640625 C 21.2395133972168 17.4195556640625 15.60134887695313 17.6643180847168 12.74795150756836 19.43999481201172 C 11.72767639160156 20.07490539550781 11.04553985595703 20.9116325378418 10.53620147705078 22.15299224853516 C 9.857063293457031 23.80819320678711 9.512714385986328 26.17168045043945 9.512714385986328 29.17778015136719 C 9.512714385986328 30.56809234619141 9.796237945556641 33.94953155517578 10.86931228637695 36.79589462280273 C 11.42407608032227 38.2674446105957 12.12562561035156 39.42082977294922 12.89811325073242 40.13139343261719 C 13.63802719116211 40.81198120117188 14.46516418457031 41.11548233032227 15.58003997802734 41.11548233032227 L 20.58003997802734 41.11548233032227 L 20.58003997802734 46.11548233032227 C 20.58003997802734 52.30773162841797 14.38863754272461 54.45363235473633 10.29164886474609 55.87360382080078 C 9.266414642333984 56.22894287109375 8.298038482666016 56.56458282470703 7.497402191162109 56.90991973876953 C 6.806697845458984 57.20784378051758 6.491050720214844 57.40899276733398 6.377250671386719 57.49019622802734 C 4.900691986083984 59.53765869140625 4.448116302490234 61.93940734863281 4.379600524902344 63.89415740966797 L 26.90731239318848 63.89415740966797 L 49.30440521240234 63.89415740966797 C 49.46005630493164 61.5241813659668 49.41555023193359 59.08418273925781 48.26007461547852 57.96192932128906 C 48.22626495361328 57.92910766601563 48.02518844604492 57.75040435791016 47.38551330566406 57.45570373535156 C 46.72287750244141 57.15042114257813 45.88213729858398 56.85404205322266 44.99202728271484 56.540283203125 C 41.11517333984375 55.17365646362305 33.89890289306641 52.62985610961914 33.89890289306641 43.82632064819336 L 33.89890289306641 41.75525665283203 L 35.36336517333984 40.2907829284668 C 39.75471496582031 35.89944458007813 40.22880172729492 32.61879348754883 40.22880172729492 31.41214370727539 C 40.22880172729492 24.95311737060547 39.55125045776367 21.35329437255859 38.03191375732422 19.73996734619141 C 37.6071891784668 19.28898239135742 36.81480026245117 18.63165664672852 34.84550094604492 18.13236999511719 C 32.95372772216797 17.65271759033203 30.35711288452148 17.4195556640625 26.90731239318848 17.4195556640625 M 26.90731239318848 12.4195556640625 C 41.85081481933594 12.4195556640625 45.22880172729492 16.46864318847656 45.22880172729492 31.41214370727539 C 45.22880172729492 33.57151794433594 44.48952484130859 38.23569488525391 38.89890289306641 43.82632064819336 C 38.89890289306641 51.84785461425781 48.18577575683594 50.92069244384766 51.74311447143555 54.37466812133789 C 55.76945114135742 58.28524398803711 53.96491241455078 65.23660278320313 53.96491241455078 68.89415740966797 C 42.87071228027344 68.89415740966797 31.85368728637695 68.89415740966797 26.90731239318848 68.89415740966797 C 21.58745002746582 68.89415740966797 -0.1502761840820313 68.89415740966797 -0.1502761840820313 68.89415740966797 C -0.1502761840820313 68.89415740966797 -2.293399810791016 60.74163055419922 2.461925506591797 54.37466812133789 C 5.015274047851563 50.95769500732422 15.58003997802734 50.70490646362305 15.58003997802734 46.11548233032227 C 5.298351287841797 46.11548233032227 4.512714385986328 31.61261749267578 4.512714385986328 29.17778015136719 C 4.512714385986328 14.23428344726563 11.96382522583008 12.4195556640625 26.90731239318848 12.4195556640625 Z"/></g><g class="b" transform="translate(0.632 -4.273)"><path class="d" d="M 51.7685661315918 66.39415740966797 L 26.82885932922363 66.39415740966797 L 2.128817796707153 66.39415740966797 C 2.11569619178772 66.24314117431641 2.102212429046631 66.09074401855469 2.088619470596313 65.93710327148438 C 1.792039394378662 62.58512496948242 1.422949433326721 58.41347503662109 3.734869480133057 56.16802597045898 C 4.563919544219971 55.36306762695313 6.190709590911865 54.78960800170898 7.913009643554688 54.18248748779297 C 11.66588973999023 52.85956573486328 17.3372802734375 50.86034774780273 17.3372802734375 43.82631683349609 L 17.3372802734375 42.79077529907227 L 16.60504913330078 42.05854797363281 C 14.393479347229 39.84698486328125 12.80568981170654 37.59878540039063 11.88577938079834 35.37637710571289 C 11.15976905822754 33.6224250793457 11.00737953186035 32.25250625610352 11.00737953186035 31.41214561462402 C 11.00737953186035 27.61551666259766 11.23044967651367 24.8412971496582 11.70938968658447 22.6815071105957 C 12.17364978790283 20.58793640136719 12.86473941802979 19.10861587524414 13.88428974151611 18.0260066986084 C 15.93486976623535 15.8485860824585 19.80613899230957 14.91955661773682 26.82885932922363 14.91955661773682 C 33.80783081054688 14.91955661773682 39.11112976074219 15.32733631134033 42.30910873413086 17.31742668151855 C 44.36436080932617 18.59640693664551 46.72346878051758 21.10032653808594 46.72346878051758 29.17778587341309 C 46.72346878051758 29.36051559448242 46.70621871948242 33.69879531860352 45.20615768432617 37.67779541015625 C 44.50440979003906 39.53922653198242 43.60419845581055 40.98379516601563 42.53054046630859 41.97136688232422 C 41.32778930664063 43.07768630981445 39.89690780639648 43.61547470092773 38.1561393737793 43.61547470092773 L 35.6561393737793 43.61547470092773 L 35.6561393737793 46.11547470092773 C 35.6561393737793 48.21945571899414 36.7947998046875 49.9691276550293 39.04050064086914 51.31587600708008 C 40.56325912475586 52.22908782958984 42.44421005249023 52.88100814819336 44.26324081420898 53.51146697998047 C 45.51351928710938 53.94480514526367 46.69445037841797 54.35410690307617 47.66659927368164 54.81113815307617 C 48.7569580078125 55.32373809814453 49.14022064208984 55.69529724121094 49.27162933349609 55.87114715576172 C 50.92496871948242 58.0848274230957 51.79734039306641 60.8447380065918 51.86413955688477 64.07373809814453 C 51.88232040405273 64.952392578125 51.83561325073242 65.74288177490234 51.7685661315918 66.39415740966797 Z"/><path class="f" d="M 26.82885932922363 17.4195556640625 C 23.37905883789063 17.4195556640625 20.78244781494141 17.65271759033203 18.89067077636719 18.13236999511719 C 16.92137145996094 18.63165664672852 16.12898254394531 19.28898239135742 15.70425796508789 19.73996734619141 C 14.18492126464844 21.35329437255859 13.50737380981445 24.95311737060547 13.50737380981445 31.41214370727539 C 13.50737380981445 32.61879348754883 13.98146057128906 35.89944458007813 18.37281036376953 40.2907829284668 L 19.83727264404297 41.75525665283203 L 19.83727264404297 43.82632064819336 C 19.83727264404297 52.62985610961914 12.62099838256836 55.17365646362305 8.744159698486328 56.540283203125 C 7.854045867919922 56.85404205322266 7.013309478759766 57.15042114257813 6.350673675537109 57.45569610595703 C 5.71099853515625 57.75040435791016 5.509922027587891 57.92910766601563 5.476657867431641 57.96139526367188 C 4.320735931396484 59.08408355712891 4.276142120361328 61.524169921875 4.431774139404297 63.89415740966797 L 26.82885932922363 63.89415740966797 L 49.35668182373047 63.89415740966797 C 49.28824996948242 61.93927764892578 48.83567428588867 59.53742218017578 47.35900115966797 57.49024963378906 C 47.24527359008789 57.40908050537109 46.92965316772461 57.20791625976563 46.23878479003906 56.90991973876953 C 45.43814849853516 56.56458282470703 44.46977233886719 56.22894287109375 43.44453430175781 55.87360382080078 C 39.3475456237793 54.45363235473633 33.15614700317383 52.30773162841797 33.15614700317383 46.11548233032227 L 33.15614700317383 41.11548233032227 L 38.15614700317383 41.11548233032227 C 39.27102279663086 41.11548233032227 40.09815979003906 40.81198120117188 40.83807373046875 40.13139343261719 C 41.61055755615234 39.42082977294922 42.31211090087891 38.2674446105957 42.86687088012695 36.79589462280273 C 43.93994903564453 33.94953155517578 44.22347259521484 30.56809234619141 44.22347259521484 29.17778015136719 C 44.22347259521484 26.17168045043945 43.87911987304688 23.80819320678711 43.19998550415039 22.15299224853516 C 42.69064712524414 20.9116325378418 42.00851058959961 20.07490539550781 40.98823547363281 19.43999481201172 C 38.13483428955078 17.6643180847168 32.49665832519531 17.4195556640625 26.82885932922363 17.4195556640625 M 26.82885932922363 12.4195556640625 C 41.77236175537109 12.4195556640625 49.22347259521484 14.23428344726563 49.22347259521484 29.17778015136719 C 49.22347259521484 31.61261749267578 48.43783569335938 46.11548233032227 38.15614700317383 46.11548233032227 C 38.15614700317383 50.70490646362305 48.72089767456055 50.95769500732422 51.27425765991211 54.37466812133789 C 56.02958297729492 60.74161911010742 53.88645935058594 68.89415740966797 53.88645935058594 68.89415740966797 C 53.88645935058594 68.89415740966797 32.14873504638672 68.89415740966797 26.82885932922363 68.89415740966797 C 21.88248443603516 68.89415740966797 10.86547088623047 68.89415740966797 -0.2287406921386719 68.89415740966797 C -0.2287406921386719 65.23660278320313 -2.033279418945313 58.28524398803711 1.993072509765625 54.37466812133789 C 5.550411224365234 50.92069244384766 14.83727264404297 51.84785461425781 14.83727264404297 43.82632064819336 C 9.246658325195313 38.2357063293457 8.507373809814453 33.57151794433594 8.507373809814453 31.41214370727539 C 8.507373809814453 16.46864318847656 11.88536071777344 12.4195556640625 26.82885932922363 12.4195556640625 Z"/></g><g transform="translate(54.029)"><g class="b"><path class="d" d="M 4.052789688110352 27.29610633850098 C 3.93088698387146 27.29610633850098 3.832480192184448 27.29049873352051 3.754257917404175 27.28256988525391 C 3.813052654266357 27.05570411682129 3.953585147857666 26.66755104064941 4.288069725036621 26.06694602966309 C 4.836459636688232 25.08225631713867 5.739839553833008 23.81864738464355 6.973119735717773 22.31121635437012 L 8.059069633483887 20.98386573791504 L 6.598959445953369 20.08430671691895 C 3.358499526977539 18.08787727355957 1.499999523162842 15.31231689453125 1.499999523162842 12.46931648254395 C 1.499999523162842 9.667396545410156 3.277169466018677 6.984476566314697 6.504129409790039 4.914796829223633 C 9.937509536743164 2.712726593017578 14.53213977813721 1.499996662139893 19.441650390625 1.499996662139893 C 24.35116004943848 1.499996662139893 28.9457893371582 2.712726593017578 32.37916946411133 4.914796829223633 C 35.60612869262695 6.984476566314697 37.38330078125 9.667396545410156 37.38330078125 12.46931648254395 C 37.38330078125 15.27123641967773 35.60612869262695 17.95414733886719 32.37916946411133 20.02382659912109 C 28.9457893371582 22.22589683532715 24.35116004943848 23.43862724304199 19.441650390625 23.43862724304199 C 17.70798873901367 23.43862724304199 15.02938938140869 24.30516624450684 11.9278392791748 25.30853652954102 C 9.048039436340332 26.24016571044922 5.783999443054199 27.29610633850098 4.052789688110352 27.29610633850098 Z"/><path class="f" d="M 19.441650390625 2.999996185302734 C 17.08226013183594 2.999996185302734 14.80041885375977 3.294475555419922 12.65951919555664 3.875246047973633 C 10.64007949829102 4.423076629638672 8.841569900512695 5.197637557983398 7.313940048217773 6.17741584777832 C 5.70281982421875 7.210746765136719 3 9.402215957641602 3 12.46931648254395 C 3 14.77995681762695 4.598548889160156 17.09003639221191 7.385768890380859 18.80721664428711 L 10.30597877502441 20.60634613037109 L 8.134078979492188 23.26103591918945 C 7.441501617431641 24.10756683349609 6.911972045898438 24.80625152587891 6.507272720336914 25.37828063964844 C 8.036745071411133 24.99077606201172 9.869712829589844 24.39781188964844 11.46615028381348 23.88135528564453 C 14.68848991394043 22.83891677856445 17.47139930725098 21.93862533569336 19.441650390625 21.93862533569336 C 21.80104064941406 21.93862533569336 24.08287811279297 21.64414596557617 26.22377967834473 21.06337738037109 C 28.24321937561035 20.51554679870605 30.04172897338867 19.74098587036133 31.56935882568359 18.76120758056641 C 33.18048095703125 17.72788619995117 35.88330078125 15.53641700744629 35.88330078125 12.46931648254395 C 35.88330078125 9.402215957641602 33.18048095703125 7.210746765136719 31.56935882568359 6.17741584777832 C 30.04172897338867 5.197637557983398 28.24321937561035 4.423076629638672 26.22377967834473 3.875246047973633 C 24.08287811279297 3.294475555419922 21.80104064941406 2.999996185302734 19.441650390625 2.999996185302734 M 19.441650390625 -3.814697265625e-06 C 30.17897987365723 -3.814697265625e-06 38.88330078125 5.582696914672852 38.88330078125 12.46931648254395 C 38.88330078125 19.35592651367188 30.17897987365723 24.93862533569336 19.441650390625 24.93862533569336 C 16.30466651916504 24.93862533569336 7.816989898681641 28.79610633850098 4.052791595458984 28.79610633850098 C 1.542434692382813 28.79610633850098 1.132984161376953 27.08069229125977 5.812158584594727 21.36138534545898 C 2.290729522705078 19.19185638427734 0 16.00216674804688 0 12.46931648254395 C 0 5.582696914672852 8.704319000244141 -3.814697265625e-06 19.441650390625 -3.814697265625e-06 Z"/></g><g class="c" transform="translate(13.442 11.727)"><circle class="d" cx="1" cy="1" r="1"/><circle class="e" cx="1" cy="1" r="0.5"/></g><g class="c" transform="translate(18.442 11.727)"><circle class="d" cx="1" cy="1" r="1"/><circle class="e" cx="1" cy="1" r="0.5"/></g><g class="c" transform="translate(23.442 11.727)"><circle class="d" cx="1" cy="1" r="1"/><circle class="e" cx="1" cy="1" r="0.5"/></g></g></g></g></svg>